<?xml version="1.0" encoding="UTF-8" standalone="no"?>
<!-- Created with Inkscape (http://www.inkscape.org/) -->

<svg
   xmlns:dc="http://purl.org/dc/elements/1.1/"
   xmlns:cc="http://creativecommons.org/ns#"
   xmlns:rdf="http://www.w3.org/1999/02/22-rdf-syntax-ns#"
   xmlns:svg="http://www.w3.org/2000/svg"
   xmlns="http://www.w3.org/2000/svg"
   xmlns:sodipodi="http://sodipodi.sourceforge.net/DTD/sodipodi-0.dtd"
   xmlns:inkscape="http://www.inkscape.org/namespaces/inkscape"
   width="210mm"
   height="297mm"
   viewBox="0 0 210 297"
   version="1.1"
   id="svg8"
   inkscape:export-filename="/home/sebastian/Documentos/DRAIV/public/img/next_v_64.png"
   inkscape:export-xdpi="96"
   inkscape:export-ydpi="96"
   inkscape:version="0.92.3 (2405546, 2018-03-11)"
   sodipodi:docname="back_64.svg">
  <defs
     id="defs2" />
  <sodipodi:namedview
     id="base"
     pagecolor="#ffffff"
     bordercolor="#666666"
     borderopacity="1.0"
     inkscape:pageopacity="0.0"
     inkscape:pageshadow="2"
     inkscape:zoom="1.4"
     inkscape:cx="283.41437"
     inkscape:cy="724.47387"
     inkscape:document-units="mm"
     inkscape:current-layer="layer1"
     showgrid="false"
     inkscape:window-width="1366"
     inkscape:window-height="713"
     inkscape:window-x="1920"
     inkscape:window-y="28"
     inkscape:window-maximized="1" />
  <metadata
     id="metadata5">
    <rdf:RDF>
      <cc:Work
         rdf:about="">
        <dc:format>image/svg+xml</dc:format>
        <dc:type
           rdf:resource="http://purl.org/dc/dcmitype/StillImage" />
        <dc:title></dc:title>
      </cc:Work>
    </rdf:RDF>
  </metadata>
  <g
     inkscape:label="Capa 1"
     inkscape:groupmode="layer"
     id="layer1">
    <g
       id="g821"
       transform="matrix(-0.08336839,-5.0979745e-4,5.0978804e-4,-0.08336685,69.645688,136.05565)"
       inkscape:export-xdpi="96"
       inkscape:export-ydpi="96">
      <path
         id="path815"
         d="m 151.338,14.523 c -74.785,0 -135.405,60.626 -135.405,135.409 0,74.782 60.62,135.413 135.405,135.413 74.782,0 135.412,-60.631 135.412,-135.413 0,-74.782 -60.63,-135.409 -135.412,-135.409 z m 0,251.669 c -64.209,0 -116.263,-52.054 -116.263,-116.26 0,-64.206 52.054,-116.261 116.263,-116.261 64.21,0 116.256,52.054 116.256,116.261 0,64.207 -52.046,116.26 -116.256,116.26 z"
         inkscape:connector-curvature="0"
         style="fill:#efc849" />
      <circle
         id="circle817"
         r="104.744"
         cy="149.93201"
         cx="151.341"
         style="fill:#efc849" />
      <polygon
         id="polygon819"
         points="185.426,172.491 142.188,197.3 142.188,172.491 78.436,172.491 78.436,127.369 142.188,127.369 142.188,102.564 184.903,127.376 185.623,127.376 185.623,127.799 224.245,150.229 185.623,172.387 185.623,172.491 "
         style="fill:#ffffff" />
    </g>
  </g>
</svg>
